<?xml version="1.0" encoding="utf-8"?>
<!-- Generator: Adobe Adobe Illustrator 24.2.0, SVG Export Plug-In . SVG Version: 6.00 Build 0)  -->
<svg version="1.1" id="Layer_2" xmlns="http://www.w3.org/2000/svg" xmlns:xlink="http://www.w3.org/1999/xlink" x="0px" y="0px"
	 viewBox="0 0 24 24" style="enable-background:new 0 0 24 24;" xml:space="preserve">
<style type="text/css">
	.st0{fill:#6489FA;}
	.st1{fill:#FAA264;}
	.st2{opacity:0.7216;fill:#6489FA;stroke:#6489FA;stroke-miterlimit:10;}
	.st3{opacity:0.7216;fill:#FAA264;stroke:#FAA264;stroke-miterlimit:10;}
</style>
<circle class="st0" cx="3.14" cy="3.17" r="1.5"/>
<circle class="st1" cx="12" cy="3.17" r="1.5"/>
<circle class="st1" cx="20.5" cy="3.17" r="1.5"/>
<circle class="st0" cx="3.14" cy="7.55" r="1.5"/>
<circle class="st0" cx="12" cy="7.55" r="1.5"/>
<circle class="st0" cx="20.5" cy="7.55" r="1.5"/>
<circle class="st0" cx="20.5" cy="12" r="1.5"/>
<circle class="st0" cx="12" cy="11.93" r="1.5"/>
<circle class="st0" cx="12" cy="11.93" r="1.5"/>
<circle class="st0" cx="12" cy="16.31" r="1.5"/>
<circle class="st0" cx="12" cy="20.69" r="1.5"/>
<circle class="st0" cx="20.5" cy="16.34" r="1.5"/>
<circle class="st0" cx="20.5" cy="20.69" r="1.5"/>
<circle class="st1" cx="3.15" cy="12" r="1.5"/>
<circle class="st0" cx="3.14" cy="16.31" r="1.5"/>
<circle class="st0" cx="3.15" cy="20.69" r="1.5"/>
<line class="st2" x1="3.29" y1="2.96" x2="12.26" y2="7.83"/>
<line class="st2" x1="2.84" y1="7.04" x2="11.91" y2="12"/>
<line class="st2" x1="3.28" y1="16.34" x2="12" y2="16.34"/>
<line class="st2" x1="3.1" y1="20.69" x2="11.82" y2="20.69"/>
<line class="st2" x1="11.45" y1="20.69" x2="20.17" y2="20.69"/>
<line class="st2" x1="11.82" y1="7.55" x2="20.54" y2="7.55"/>
<line class="st2" x1="12.05" y1="11.79" x2="20.31" y2="16.45"/>
<line class="st2" x1="11.87" y1="16.44" x2="20.18" y2="11.87"/>
<line class="st3" x1="2.84" y1="12.43" x2="12.09" y2="3.17"/>
<line class="st3" x1="11.83" y1="3.18" x2="20.53" y2="3.17"/>
</svg>
